<svg xmlns="http://www.w3.org/2000/svg" viewBox="0 0 877.4 511.63"><g id="Capa_2" data-name="Capa 2"><g id="Layer_1" data-name="Layer 1"><path d="M877.25,3.32C856.41,16,845.62,36.44,835.67,57.46c-13.42,28.31-26.28,56.9-36.82,86.43-9.13,25.58-26.36,40-53.36,45C707,196.08,668,199,629.24,204.3c-25.08,3.43-47.59,14.89-67.92,30.06-12.81,9.56-13.36,14.72-4,27.62,8.74,12,8,19.82-4,28.45-9.07,6.52-19,11.87-28.44,17.82-5.36,3.37-10.94,6.52-15.84,10.49-3.78,3.06-10.31,7.18-5.75,12.4,4.18,4.79,11.41,3,16.11-1.3,3.77-3.47,6.29-8.27,9.55-12.34,2-2.49,3.55-6.47,7.61-5.42,3.52.92,2.91,4.91,3.45,7.61,2.43,12.12-.24,22.9-9,32-4.67,4.83-9.12,9.86-13.68,14.79-21.38,23.15-27.72,50.17-21.7,80.84,4.21,21.43-12.08,48.38-34.94,59.48-19.54,9.48-40.28,5-56.77-12.66-12.7-13.61-23.72-27.54-18.41-48.59,9.43-37.35-7.14-66.2-32.71-91.08-9.77-9.51-13.43-20.18-12-33.23.37-3.32-.09-7.66,3.37-8.91,4.45-1.61,6.2,3.07,8.4,5.86,5.17,6.56,8.3,15.63,19.07,15.06,2.55-.13,5.46.34,6.78-2.7,1.17-2.71,0-5-1.62-7.22-3.23-4.28-7.65-7.09-12.08-9.85C352.72,306,340.3,299,328.63,291c-12.64-8.69-13.55-16.88-4.65-29.26s8.46-18.11-3.75-27c-26.1-19.08-54.89-31-87.69-33a661.54,661.54,0,0,1-107.18-15.45c-21.71-4.94-34.41-19.8-41.87-39.86-9.35-25.18-20-49.81-31.23-74.22C40.19,45.88,29.73,18.35,0,1.43c13.43-3,21.85.8,29.8,5.73a130,130,0,0,1,37.36,35C79.77,59.72,93.49,76.61,104.87,95c15.77,25.42,38.89,37.34,67.27,40.81Q247,144.92,322,153.28c16.09,1.81,31.2-3.34,45.42-9.8,20.61-9.36,40.79-12.89,62.59-4,9.16,3.73,19.31,1.63,28.5-1.9,15.22-5.84,29.8-4.54,44.52,1.88a237.9,237.9,0,0,0,35.9,12.31c18.47,4.75,36.35-1.15,54.37-2.87,37.45-3.57,74.75-8.61,112.16-12.68,30.65-3.34,55.15-15.68,72.09-42.82,12.22-19.58,26.85-37.65,40.54-56.31,9.41-12.82,21.49-22.77,35-30.93,7.34-4.43,15.15-7.77,24.19-5.32C877.29,2,877.56,3.13,877.25,3.32Z"/></g></g></svg>