<svg xmlns="http://www.w3.org/2000/svg" viewBox="0 0 756.53 536.44"><g id="Capa_2" data-name="Capa 2"><g id="Layer_1" data-name="Layer 1"><path d="M190.42,278.53A211.66,211.66,0,0,1,154.77,344c-19.81,24.77-39,50.07-58.09,75.38C84.94,435,75,451.63,69.69,470.62c-6.46,23.1-2.25,32.29,19.19,42.5,2,1,4,2,5.94,3.13,4.35,2.55,8.32,5.51,6.83,11.44s-6.08,8-11.72,8.57c-24.93,2.53-47-21.64-43.58-47.83,3.23-24.54,16-44.73,30-64.2,18.74-26.06,38.49-51.41,56.6-77.89,26.67-39,41.22-81.11,28.55-129-3.85-14.52-9.42-28.38-18.69-40.4-13.17-17.07-33.14-23.17-52.95-16.45-21,7.13-32.66,23.27-32.69,45.5,0,31.36.13,62.71,0,94.07-.13,22-2.26,44.34,14.61,62.77l-1.77,2.52c-21.94,0-43.88,0-65.82,0-4.72,0-5-2.77-2.69-5.78,20-25.87,17.11-56.12,16.74-85.92-.16-12.69-.61-25.42.11-38.07,1.14-20.21-1.48-39.48-11.57-57.27-3-5.27-1.9-8.54,2.86-12.19,13.33-10.21,26.26-20.95,39.4-31.41,1.91-1.52,3.64-4.6,6.58-2.87,2.64,1.56,1.47,4.74,1.54,7.22.16,5.59.25,11.2,0,16.79-.28,7,2.65,7.72,7.95,4.41q13.78-8.58,27.57-17.14c10.86-6.72,22.18-12.93,35.09-13.74,23.08-1.44,40.23,9.31,52,28.6C203.24,196.34,204.36,236.92,190.42,278.53Z"/><path d="M257.71,486.07c-12.51,7.13-36.63,4.33-45-5.24-9.07-10.31-9.55-36-.88-47.48,9-12,36.61-15.31,48.19-5.87,2.06,1.69,4.32,3.44,2.71,6.45s-3.83,5.82-7.74,5.27c-2.14-.3-4.09-1.72-6.2-2.42-19-6.33-31.17,3-29.79,22.83,1.06,15.3,18.35,24,31.35,15.78a10.32,10.32,0,0,0,5.14-9.33c-.11-4.38-3.63-3.61-6.49-4.18-4.31-.87-12,3.29-11.36-5.83.55-8.18,7.77-4.4,12.23-5.43a23.66,23.66,0,0,1,4.24,0c4.11,1.89,11.66-3.76,14.37,4.77C271.85,466.06,266.43,481.09,257.71,486.07Z"/><path d="M391.06,456.56c0,7.81,0,15.62,0,23.43,0,4.28-.27,8.41-6.12,8.6s-6.45-3.72-6.44-8.16c0-16.36,0-32.71,0-49.07,0-4.62.9-8.22,6.61-8s6,4.36,6,8.67C391,440.21,391.06,448.39,391.06,456.56Z"/><path d="M400,248.29c0,34.33-.27,68.66.17,103,.11,9.08-2.41,13.41-11.91,12a29,29,0,0,0-4.47,0c-25.3,0-25.48.07-33.74-23.82-3-8.7-6.2-4-9-.5-7,8.79-14.51,17.05-23.86,23.44-11.7,8-24.52,13-38.87,11.44-20.68-2.22-32.36-15.26-38.61-34.09-7.65-23.05-8.08-46.95-7.54-70.81.75-33.45,5.33-67.12-8-99.4-1.64-3.95.49-6.34,3.53-8.35q19.58-13,39.16-26c5-3.31,7.7-2,7.53,4.06-1.25,43.57,3.14,87.27-3.12,130.73a107.35,107.35,0,0,0,3,44.31c3.88,14,11.79,24.09,27,26.37,16,2.38,28.67-3.37,37.54-16.75,11.48-17.33,15.05-37.32,16.94-57.38,1.67-17.77,3.2-35.62,1.7-53.61-1.1-13.32-4.09-25.83-11.46-36.94-4.53-6.83-2.25-10.27,4.07-14,13.17-7.78,25.88-16.3,38.89-24.35,2.71-1.68,5.31-5.41,8.78-3.6,4,2.1,2.17,6.71,2.18,10.19C400,178.9,400,213.59,400,248.29Z"/><path d="M460.58,488.72c-10.43,0-20.87,0-31.3.07-5.44,0-7.17-3.07-7.19-7.79,0-8.57,0-17.15,0-25.72H422c0-7.08-.16-14.16.06-21.24.14-4.58-1.22-10.5,6.34-10.65,7.36-.15,6.81,5.37,6.84,10.23.07,11.18.37,22.37-.06,33.54-.28,7.38,2.62,10.07,9.79,9.53,5.19-.39,10.43-.05,15.65.07,3.83.09,6.4,1.59,6.35,6S464.48,488.7,460.58,488.72Z"/><path d="M531.34,488.68c-11.14.07-22.29.11-33.43,0-5.66-.08-6.25-4.32-6.29-8.63-.08-8.17,0-16.34,0-24.51h0c0-7.43,0-14.86,0-22.29,0-5,.09-10.08,7.25-9.91,6.66.16,6.24,5,6.27,9.54,0,8.17-.07,16.35,0,24.52.3,21.95-2.81,18.91,18.65,19.25,2.6,0,5.2.05,7.79.18,3.43.19,5.59,1.81,5.7,5.48C537.38,486.33,535.44,488.65,531.34,488.68Z"/><path d="M596.74,363.24a20.8,20.8,0,0,0-3.35,0c-25.55,0-25.72.1-35.23-24.56-1.92-5-4.15-4.7-7.27-2.22-2,1.59-3.38,3.95-5,6-7.19,9.2-15.51,17.11-25.7,23-32,18.46-62.42,7.14-73.63-28-9.26-29-7.82-59-6.1-88.81,1.51-26.27,1.42-52.25-8-77.29-1.74-4.65-.82-7.8,3.27-10.47C448.88,152.3,461.9,143.58,475,135c5-3.25,7.7-1.89,7.53,4.19-1.23,44,3.2,88.06-3.21,131.88a98.8,98.8,0,0,0,4.17,46.37c8.61,25.52,38.31,32.06,57.68,13.08,10.57-10.35,15.55-23.7,18.44-37.63,6.17-29.73,8.18-59.8,4.82-90.1-1.09-9.87-5-18.75-10.3-26.92-3.83-5.85-3.62-9.51,3-13.37,14.16-8.3,28-17.19,41.66-26.26,7.51-5,9.39-2.82,9.35,5.36-.19,35.45-.08,70.9-.08,106.35,0,34.71-.26,69.41.17,104.11C608.32,360.9,605.54,364.58,596.74,363.24Z"/><path d="M756.51,136.81c-.37,9.31-5.63,8.93-11.91,8.6-7.83-.41-15.67-.53-23.47-1.19-6.77-.58-10.19,1-10.25,8.91-.41,50.75-1.59,101.49-1.74,152.23,0,17.6,2.69,35.09,13.72,49.88,3.36,4.51,2.75,6.84-2.9,6.87q-31.9.17-63.82,0c-5,0-7.16-1.84-3.29-6.66,13.33-16.6,17.09-36.37,17.28-56.77.45-46.65.36-93.29-1.36-139.93-.37-10-3.65-12.31-12.82-9.67-7.9,2.27-16,3.83-23,8.48-5.21,3.49-6.67.9-6.66-3.92,0-7.09.47-14.18.33-21.27-.11-6.13,4-6.34,8.22-6.4,9-.12,17.91-.26,26.87-.14,6.1.09,8.74-2.41,8.56-8.7-.48-16.89,3-34.66-12.07-47.94-2.69-2.37-3.76-6-.72-8.94C677.08,41,696.74,21.79,719,0c-3.84,25.35-7.71,47.32-9.09,69.6a350.29,350.29,0,0,0,.41,47c.54,7.46,3.87,9.57,10.62,9.33,7.83-.28,15.68.21,23.51-.09S756.89,127.12,756.51,136.81Z"/><path d="M344.2,458.9c7.11-5.29,6.88-14.38,4.36-22.72s-8.87-11.82-16.81-12.38c-9.26-.66-18.58-.39-27.87-.76-6.82-.27-9.26,3.07-9.09,9.5.21,7.81,0,15.62,0,23.44H295c0,8.55-.07,17.11,0,25.66.05,4.27,1.8,7.08,6.68,7s6.26-3.14,6.35-7.33c0-2.23-.07-4.48.13-6.69.31-3.45-1.15-8.15,4.57-8.44,4.27-.22,9.09-1.64,11.92,3.48,2.16,3.9,4.62,7.65,6.58,11.65,2.79,5.68,7.33,10,13.12,6.67,6.75-3.91-.11-8.51-2.1-11.87C338.34,469.48,336.1,464.92,344.2,458.9Zm-23.32-5.08c-6.65.13-13.39,1.65-13-9.36.31-8.71,4.63-9.88,11.29-9.2,6.87.71,16.41-2.16,16.84,9.19C336.41,455.23,327.76,453.66,320.88,453.82Z"/></g></g></svg>