<svg xmlns="http://www.w3.org/2000/svg" viewBox="0 0 222.48 128.94"><defs><style>.cls-1{fill:#1e0e00;}</style></defs><g id="Capa_2" data-name="Capa 2"><g id="Layer_2" data-name="Layer 2"><path class="cls-1" d="M210.82,5.22c-4.85,4.13-12,16-17.24,22.44s-14.36,6.64-22.08,7.72-19.38,1.79-26.38,2.87-8.62.36-13.11-1.08-8.07-3.41-11-3.41-7,2-9.48,2h-.62c-2.51,0-6.57-2-9.48-2s-6.5,2-11,3.41-6.11,2.15-13.11,1.08S58.7,36.45,51,35.38,34.1,34.12,28.9,27.66,16.51,9.35,11.67,5.22,4.13-.57,0,.17C4.31,1.81,7.18,5.4,10.59,12s9.15,20.82,10.23,23.69,3.41,9,10.59,10.77a179.4,179.4,0,0,0,28.36,4c7.9.36,16.34,4.85,19.39,7s6.64,4.49,3.23,8.26-1.62,5.92,1.43,7.9,8.44,4.84,10.41,6.46,2.52,3.23,1.44,4a4.56,4.56,0,0,1-5.2-1.08c-1.26-1.61-3.59-6.1-4-3.41s-.9,6.1,2,8.8,9,9.51,9.51,15.43a42.35,42.35,0,0,1-.71,11.49,9.1,9.1,0,0,0,2.33,6.2c1.59,1.85,5,7.25,11.62,7.49,6.63-.24,10-5.64,11.62-7.49a9.05,9.05,0,0,0,2.33-6.2,42.35,42.35,0,0,1-.71-11.49C125,97.84,131.12,91,134,88.33s2.33-6.11,2-8.8-2.69,1.8-4,3.41a4.56,4.56,0,0,1-5.2,1.08c-1.08-.72-.54-2.33,1.44-4s7.36-4.49,10.41-6.46,4.84-4.13,1.43-7.9.18-6.1,3.23-8.26,11.49-6.64,19.39-7a179.4,179.4,0,0,0,28.36-4c7.18-1.79,9.51-7.89,10.59-10.77s6.82-17,10.23-23.69S218.17,1.81,222.48.17c-4.13-.74-6.82.92-11.66,5.05"/></g></g></svg>