<svg xmlns="http://www.w3.org/2000/svg" viewBox="0 0 124.96 136.75"><defs><style>.cls-1{fill:#1e0e00;}</style></defs><g id="Capa_2" data-name="Capa 2"><g id="Layer_2" data-name="Layer 2"><path class="cls-1" d="M43.87,126.23h2.77v.23c0,1.59-.53,2.36-2.6,2.36-2.34,0-3.09-1.07-3.09-3.3s1-3.22,3.11-3.22a3.19,3.19,0,0,1,2.4.86l1.06-1.08a4.61,4.61,0,0,0-3.45-1.19c-2.94,0-4.59,1.39-4.59,4.62,0,3,1.11,4.62,4.5,4.62s4.12-1.44,4.12-3.94v-1.27H43.87Z"/><path class="cls-1" d="M59.57,123.83c0-1.75-.82-2.8-3.26-2.8h-4.1v9h1.43v-3.27H56L57.87,130h1.57l-1.94-3.39a2.54,2.54,0,0,0,2.07-2.78m-3.3,1.56H53.64v-3h2.61c1.22,0,1.84.33,1.84,1.53s-.64,1.5-1.82,1.5"/><rect class="cls-1" x="64.02" y="121.03" width="1.45" height="8.97"/><polygon class="cls-1" points="71.69 121.03 70.22 121.03 70.22 130 76.27 130 76.27 128.65 71.69 128.65 71.69 121.03"/><polygon class="cls-1" points="81.66 121.03 80.19 121.03 80.19 130 86.24 130 86.24 128.65 81.66 128.65 81.66 121.03"/><path class="cls-1" d="M62.62,72.43h0Z"/><path class="cls-1" d="M118.41,2.93c-2.72,2.32-6.75,9-9.68,12.6s-8.06,3.73-12.4,4.34-10.89,1-14.82,1.61a12,12,0,0,1-7.36-.6C71.63,20.07,69.61,19,68,19s-3.91,1.11-5.32,1.11h-.35C60.9,20.07,58.62,19,57,19s-3.65,1.11-6.17,1.92-3.42,1.21-7.36.6-10.48-1-14.82-1.61-9.47-.71-12.4-4.34-7-10.28-9.68-12.6S2.32-.32,0,.1C2.42,1,4,3,6,6.76s5.14,11.7,5.75,13.31,1.91,5,5.94,6.05a100.87,100.87,0,0,0,15.93,2.22c4.44.2,9.18,2.72,10.89,3.93s3.73,2.52,1.82,4.64-.91,3.33.8,4.43,4.74,2.73,5.85,3.63,1.41,1.82.81,2.22a2.6,2.6,0,0,1-2.93-.6c-.7-.91-2-3.43-2.21-1.92s-.51,3.43,1.1,4.94,5,5.34,5.35,8.67a23.34,23.34,0,0,1-.41,6.45A5.11,5.11,0,0,0,56,68.21c.89,1.05,2.8,4.08,6.52,4.21,3.73-.13,5.63-3.16,6.53-4.21a5.1,5.1,0,0,0,1.31-3.48,23.48,23.48,0,0,1-.4-6.45c.3-3.33,3.73-7.16,5.34-8.67s1.31-3.43,1.11-4.94-1.51,1-2.22,1.92a2.58,2.58,0,0,1-2.92.6c-.61-.4-.3-1.31.8-2.22s4.14-2.52,5.85-3.63,2.72-2.31.81-4.43.1-3.43,1.81-4.64S87,28.54,91.39,28.34a100.55,100.55,0,0,0,15.93-2.22c4-1,5.34-4.44,6-6.05S117.1,10.49,119,6.76,122.54,1,125,.1c-2.32-.42-3.83.51-6.55,2.83"/><path class="cls-1" d="M28.7,79.22a10.67,10.67,0,0,0-5.58,2.07,24.79,24.79,0,0,1-5.18,3v-5.1A80.43,80.43,0,0,1,10.69,85q2.14,4.23,2.15,5.82V106c0,1.33-.95,3.51-2.87,6.53H20.09q-2.14-3.18-2.15-5V89.42a5.57,5.57,0,0,1,.6-2.55,6.9,6.9,0,0,1,1.59-2.08A8.19,8.19,0,0,1,22.4,83.4a7.26,7.26,0,0,1,2.71-.52c2.76,0,5,1.65,6.7,4.94a19.4,19.4,0,0,1,2.07,8.77q0,6-4.46,13.06c-1.39,1.87-2.75,3.74-4.11,5.62s-2.72,3.76-4.1,5.62q-4.47,6.14-4.46,9.88A5.86,5.86,0,0,0,18.42,135a5.51,5.51,0,0,0,4.14,1.76c1.22,0,1.84-.51,1.84-1.52a.49.49,0,0,0-.08-.32,8.88,8.88,0,0,0-3.19-1.75c-1.17-.48-1.75-1.57-1.75-3.27q0-4.14,4.86-10.51,2.31-3,4.54-5.9c1.48-2,3-3.93,4.54-5.9q4.86-7.48,4.86-14.5a17.78,17.78,0,0,0-2.23-9q-2.62-4.86-7.25-4.86"/><path class="cls-1" d="M60.73,88.46a18.3,18.3,0,0,1,.4,4.22q0,16.74-7.41,16.74-5.43,0-5.42-8.69a9.44,9.44,0,0,1,.08-1.19c0-.48.12-1,.2-1.52s.14-1,.2-1.51.08-.88.08-1.2V79.54c-1,.58-2,1.26-3.19,2s-2.44,1.66-3.83,2.67q1.6,3,1.6,8.84c0,.43,0,1,0,1.6s-.07,1.4-.12,2.31-.08,1.59-.08,2.23v1.59q0,12.82,7,12.83,4.78,0,8.61-5.58l1.11-.08a6.56,6.56,0,0,0,1.75,4.23h5V79.54q-5.66,3.73-7.88,5a14.81,14.81,0,0,1,1.91,3.9"/><path class="cls-1" d="M90.29,88.46a17.76,17.76,0,0,1,.4,4.22q0,16.74-7.41,16.74-5.43,0-5.42-8.69a11.8,11.8,0,0,1,.08-1.19c0-.48.12-1,.2-1.52s.14-1,.2-1.51.08-.88.08-1.2V79.54c-1,.58-2,1.26-3.19,2s-2.44,1.66-3.82,2.67q1.59,3,1.59,8.84c0,.43,0,1,0,1.6s-.07,1.4-.12,2.31-.08,1.59-.08,2.23v1.59q0,12.82,7,12.83,4.78,0,8.61-5.58l1.11-.08a6.52,6.52,0,0,0,1.76,4.23h5V79.54q-5.67,3.73-7.89,5a14.81,14.81,0,0,1,1.91,3.9"/><path class="cls-1" d="M110.69,73.48a62.56,62.56,0,0,1,1.43-12.67l-8.84,8.93,2.23,2.94.07,6.08H99.3a31,31,0,0,1,0,4.83s.3-1.55,6-2.25c.09,2.67.16,5.59.21,8.79q.08,5.43.08,12,0,6.93-3.19,9.88h10.92q-2.71-2.16-2.71-9.41c0-1.22,0-2.76,0-4.62s.06-4,.12-6.53.09-4.74.12-6.58q0-2.2,0-3.81c1.85,0,4,0,6.46.15V78.76h-6.47c-.15-2.14-.22-3.91-.22-5.28"/></g></g></svg>