<svg xmlns="http://www.w3.org/2000/svg" viewBox="0 0 877.4 964.45"><defs><style>.cls-1{fill:#fff;}</style></defs><g id="Capa_2" data-name="Capa 2"><g id="Layer_1" data-name="Layer 1"><path class="cls-1" d="M262.19,706.54a211.82,211.82,0,0,1-35.65,65.51c-19.82,24.76-39,50.06-58.09,75.37-11.74,15.56-21.68,32.22-27,51.21-6.46,23.1-2.25,32.29,19.19,42.5,2,1,4,2,5.94,3.13,4.35,2.55,8.32,5.51,6.83,11.44s-6.08,8-11.72,8.57c-24.93,2.53-47-21.64-43.58-47.83,3.23-24.54,16-44.73,30-64.2,18.74-26.06,38.49-51.41,56.6-77.89,26.67-39,41.22-81.11,28.55-129-3.85-14.52-9.42-28.38-18.69-40.4-13.17-17.07-33.14-23.16-53-16.45-21,7.13-32.66,23.27-32.69,45.5,0,31.36.13,62.71,0,94.07-.13,22-2.26,44.34,14.61,62.77l-1.77,2.52c-21.94,0-43.88,0-65.82,0-4.72,0-5-2.76-2.69-5.78,20-25.87,17.1-56.12,16.74-85.92-.16-12.69-.61-25.42.11-38.07,1.14-20.21-1.48-39.48-11.58-57.27-3-5.27-1.89-8.54,2.87-12.19,13.33-10.21,26.25-20.95,39.39-31.41,1.92-1.52,3.65-4.6,6.59-2.86,2.64,1.55,1.47,4.73,1.54,7.21.16,5.59.25,11.2,0,16.79-.28,7,2.64,7.72,7.95,4.42q13.78-8.58,27.57-17.15c10.86-6.72,22.18-12.93,35.08-13.73,23.09-1.45,40.24,9.3,52.05,28.6C275,624.35,276.13,664.93,262.19,706.54Z"/><path class="cls-1" d="M329.48,914.08c-12.51,7.13-36.63,4.33-45-5.24-9.07-10.31-9.55-36-.88-47.48,9-12,36.61-15.31,48.19-5.87,2.06,1.69,4.31,3.44,2.71,6.45s-3.83,5.82-7.74,5.27c-2.14-.3-4.09-1.72-6.2-2.42-19-6.33-31.17,3-29.79,22.84,1.06,15.29,18.34,24,31.35,15.77a10.31,10.31,0,0,0,5.14-9.33c-.11-4.38-3.63-3.6-6.49-4.18-4.31-.87-12,3.29-11.36-5.83.55-8.18,7.77-4.4,12.23-5.42a22.54,22.54,0,0,1,4.24,0c4.11,1.89,11.65-3.76,14.37,4.77C343.62,894.07,338.2,909.1,329.48,914.08Z"/><path class="cls-1" d="M462.83,884.58c0,7.8,0,15.61,0,23.42,0,4.28-.27,8.41-6.12,8.6s-6.45-3.72-6.45-8.16c0-16.36,0-32.71,0-49.07,0-4.62.9-8.21,6.61-8s6,4.35,6,8.66C462.81,868.22,462.83,876.4,462.83,884.58Z"/><path class="cls-1" d="M471.76,676.3c0,34.33-.27,68.66.17,103,.11,9.08-2.41,13.41-11.91,12a30.29,30.29,0,0,0-4.47,0c-25.3,0-25.48.07-33.74-23.82-3-8.7-6.2-4-9-.5-7,8.79-14.51,17.05-23.86,23.44-11.71,8-24.52,13-38.87,11.45-20.68-2.23-32.36-15.27-38.61-34.1-7.65-23.05-8.08-46.94-7.55-70.81.76-33.45,5.34-67.12-8-99.4-1.63-4,.5-6.34,3.53-8.35q19.59-13,39.17-26c5-3.3,7.7-2,7.53,4.06-1.25,43.57,3.14,87.27-3.12,130.73a107.35,107.35,0,0,0,3,44.31c3.88,14,11.79,24.09,27,26.37,16,2.38,28.67-3.37,37.54-16.75,11.48-17.33,15.05-37.32,16.94-57.38,1.67-17.77,3.2-35.62,1.7-53.61-1.1-13.32-4.1-25.83-11.46-36.94-4.53-6.82-2.26-10.27,4.07-14,13.17-7.77,25.88-16.3,38.89-24.35,2.71-1.68,5.31-5.41,8.78-3.6,4.05,2.1,2.17,6.71,2.18,10.19C471.81,606.91,471.76,641.61,471.76,676.3Z"/><path class="cls-1" d="M532.35,916.73c-10.43,0-20.87,0-31.3.07-5.44.06-7.17-3.07-7.19-7.79-.05-8.57,0-17.14,0-25.72h-.09c0-7.08-.16-14.16.06-21.24.14-4.58-1.22-10.5,6.34-10.65,7.36-.14,6.81,5.37,6.84,10.23.07,11.18.37,22.37-.06,33.54-.28,7.38,2.61,10.07,9.79,9.53,5.19-.39,10.43-.05,15.65.07,3.83.09,6.4,1.59,6.35,6S536.25,916.71,532.35,916.73Z"/><path class="cls-1" d="M603.11,916.69c-11.14.07-22.29.11-33.43,0-5.66-.08-6.26-4.32-6.29-8.63-.08-8.17,0-16.34,0-24.51h0c0-7.43,0-14.86,0-22.29,0-5,.09-10.08,7.25-9.91,6.66.16,6.24,5,6.27,9.54,0,8.17-.07,16.35,0,24.52.3,22-2.81,18.91,18.65,19.25,2.6,0,5.2,0,7.79.19,3.43.18,5.59,1.8,5.7,5.47C609.15,914.34,607.21,916.67,603.11,916.69Z"/><path class="cls-1" d="M668.51,791.25a20.8,20.8,0,0,0-3.35,0c-25.55,0-25.73.1-35.23-24.56-1.92-5-4.15-4.7-7.27-2.22-2,1.59-3.38,3.95-5,6-7.19,9.19-15.51,17.1-25.7,23-32,18.46-62.42,7.14-73.63-28-9.26-29-7.82-59-6.1-88.81,1.51-26.27,1.42-52.24-8-77.29-1.75-4.65-.82-7.8,3.27-10.46,13.11-8.57,26.13-17.29,39.24-25.87,5-3.25,7.7-1.89,7.53,4.19-1.24,44,3.2,88.06-3.21,131.88a98.85,98.85,0,0,0,4.17,46.38c8.61,25.51,38.31,32,57.68,13.07,10.57-10.35,15.55-23.7,18.44-37.63,6.17-29.73,8.18-59.8,4.82-90.1-1.09-9.87-5-18.75-10.3-26.92-3.83-5.85-3.62-9.51,3-13.37,14.16-8.3,28-17.19,41.66-26.25,7.51-5,9.39-2.82,9.35,5.36-.19,35.44-.08,70.89-.08,106.34,0,34.71-.26,69.41.17,104.11C680.09,788.92,677.31,792.59,668.51,791.25Z"/><path class="cls-1" d="M828.28,564.82c-.37,9.31-5.64,8.93-11.92,8.6-7.82-.41-15.66-.53-23.47-1.19-6.76-.58-10.18,1-10.24,8.92-.41,50.74-1.6,101.48-1.74,152.23-.06,17.59,2.69,35.08,13.72,49.87,3.36,4.51,2.75,6.84-2.9,6.87q-31.9.17-63.82,0c-5,0-7.16-1.84-3.29-6.66,13.33-16.6,17.09-36.37,17.28-56.77.44-46.64.36-93.29-1.36-139.93-.37-10-3.65-12.3-12.82-9.67-7.9,2.27-16,3.83-23,8.48-5.21,3.49-6.67.91-6.66-3.92,0-7.09.47-14.18.33-21.26-.11-6.14,4-6.35,8.22-6.41,9-.12,17.91-.26,26.87-.13,6.1.08,8.74-2.42,8.56-8.7-.49-16.9,3-34.67-12.07-47.95-2.69-2.37-3.76-5.95-.72-8.94C748.85,469,768.51,449.8,790.77,428c-3.84,25.35-7.71,47.32-9.09,69.6a348.62,348.62,0,0,0,.41,46.95c.54,7.46,3.87,9.57,10.62,9.33,7.82-.27,15.68.21,23.5-.09S828.66,555.13,828.28,564.82Z"/><path class="cls-1" d="M877.25,3.32C856.41,16,845.62,36.44,835.67,57.46c-13.42,28.31-26.28,56.9-36.82,86.43-9.13,25.58-26.36,40-53.36,45C707,196.08,668,199,629.24,204.3c-25.08,3.43-47.59,14.89-67.92,30.06-12.81,9.56-13.36,14.72-4,27.62,8.74,12,8,19.82-4,28.45-9.07,6.52-19,11.87-28.44,17.82-5.36,3.37-10.94,6.52-15.84,10.49-3.78,3.06-10.31,7.18-5.75,12.4,4.18,4.79,11.41,3,16.11-1.3,3.77-3.47,6.29-8.27,9.55-12.34,2-2.49,3.55-6.47,7.61-5.42,3.52.92,2.91,4.91,3.45,7.61,2.43,12.12-.24,22.9-9,32-4.67,4.83-9.12,9.86-13.68,14.79-21.38,23.15-27.72,50.17-21.7,80.84,4.21,21.43-12.08,48.38-34.94,59.48-19.54,9.48-40.28,5-56.77-12.66-12.7-13.61-23.72-27.54-18.41-48.59,9.43-37.35-7.14-66.2-32.71-91.08-9.77-9.51-13.43-20.18-12-33.23.37-3.32-.09-7.66,3.37-8.91,4.45-1.61,6.2,3.07,8.4,5.86,5.17,6.56,8.3,15.63,19.07,15.06,2.55-.13,5.46.34,6.78-2.7,1.17-2.71,0-5-1.62-7.22-3.23-4.28-7.65-7.09-12.08-9.85C352.72,306,340.3,299,328.63,291c-12.64-8.69-13.55-16.88-4.65-29.26s8.46-18.11-3.75-27c-26.1-19.08-54.89-31-87.69-33a661.54,661.54,0,0,1-107.18-15.45c-21.71-4.94-34.41-19.8-41.87-39.86-9.35-25.18-20-49.81-31.23-74.22C40.19,45.88,29.73,18.35,0,1.43c13.43-3,21.85.8,29.8,5.73a130,130,0,0,1,37.36,35C79.77,59.72,93.49,76.61,104.87,95c15.77,25.42,38.89,37.34,67.27,40.81Q247,144.92,322,153.28c16.09,1.81,31.2-3.34,45.42-9.8,20.61-9.36,40.79-12.89,62.59-4,9.16,3.73,19.31,1.63,28.5-1.9,15.22-5.84,29.8-4.54,44.52,1.88a237.9,237.9,0,0,0,35.9,12.31c18.47,4.75,36.35-1.15,54.37-2.87,37.45-3.57,74.75-8.61,112.16-12.68,30.65-3.34,55.15-15.68,72.09-42.82,12.22-19.58,26.85-37.65,40.54-56.31,9.41-12.82,21.49-22.77,35-30.93,7.34-4.43,15.15-7.77,24.19-5.32C877.29,2,877.56,3.13,877.25,3.32Z"/><path class="cls-1" d="M416,886.91c7.11-5.29,6.88-14.38,4.36-22.71s-8.87-11.83-16.81-12.39c-9.26-.66-18.58-.39-27.87-.75-6.82-.28-9.26,3.06-9.09,9.49.21,7.81.05,15.63.05,23.44h.16c0,8.55-.07,17.11,0,25.66.05,4.27,1.8,7.08,6.68,7s6.26-3.14,6.35-7.33c0-2.23-.07-4.48.13-6.69.31-3.45-1.16-8.15,4.57-8.44,4.26-.22,9.09-1.64,11.92,3.48,2.16,3.9,4.61,7.65,6.58,11.65,2.79,5.68,7.33,10,13.12,6.67,6.75-3.91-.11-8.51-2.1-11.87C410.11,897.49,407.87,892.93,416,886.91Zm-23.32-5.08c-6.65.14-13.39,1.65-13-9.36.31-8.71,4.63-9.88,11.29-9.2,6.87.71,16.41-2.16,16.83,9.19C408.18,883.24,399.53,881.67,392.65,881.83Z"/></g></g></svg>